<svg width="45" height="60" viewBox="0 0 45 60" fill="#fff" xmlns="http://www.w3.org/2000/svg">
<path d="M0 16.875C0 11.6953 4.19531 7.5 9.375 7.5C14.5547 7.5 18.75 11.6953 18.75 16.875C18.75 21.1406 15.9023 24.7383 12.0117 25.875C12.082 27.7617 12.5039 29.2148 13.3008 30.1992C15.1055 32.4492 19.0781 32.8242 23.2852 33.2109C26.5898 33.5156 30.0117 33.8438 32.8125 35.1914V18.3164C29.0039 17.1211 26.25 13.5703 26.25 9.375C26.25 4.19531 30.4453 0 35.625 0C40.8047 0 45 4.19531 45 9.375C45 13.5703 42.2461 17.1211 38.4375 18.3164L38.4375 41.6719C42.2461 42.8789 45 46.4297 45 50.625C45 55.8047 40.8047 60 35.625 60C30.4453 60 26.25 55.8047 26.25 50.625C26.25 46.6406 28.7344 43.2305 32.25 41.8828C31.8867 41.2734 31.3359 40.7344 30.5039 40.3125C28.6055 39.3516 25.7695 39.0938 22.7578 38.8125C17.8125 38.3555 12.2109 37.8281 8.90625 33.7266C7.26562 31.6875 6.43359 29.0625 6.375 25.7695C2.67188 24.5039 0 21 0 16.875ZM35.625 7.5C34.5938 7.5 33.75 8.34375 33.75 9.375C33.75 10.4062 34.5938 11.25 35.625 11.25C36.6562 11.25 37.5 10.4062 37.5 9.375C37.5 8.34375 36.6562 7.5 35.625 7.5ZM35.625 52.5C36.6562 52.5 37.5 51.6562 37.5 50.625C37.5 49.5938 36.6562 48.75 35.625 48.75C34.5937 48.75 33.75 49.5938 33.75 50.625C33.75 51.6562 34.5937 52.5 35.625 52.5ZM9.375 15C8.34375 15 7.5 15.8437 7.5 16.875C7.5 17.9062 8.34375 18.75 9.375 18.75C10.4062 18.75 11.25 17.9062 11.25 16.875C11.25 15.8437 10.4062 15 9.375 15Z" fill="#fff"/>
</svg>
